<svg version="1.1" id="Layer_1" xmlns="http://www.w3.org/2000/svg" xmlns:xlink="http://www.w3.org/1999/xlink" x="0px" y="0px" width="100%" viewBox="0 0 4040 2481" enable-background="new 0 0 4040 2481" xml:space="preserve">
<path fill="#1F8494" opacity="1.000000" stroke="none" d=" M1.999999,210.000000   C2.000000,140.675171 2.000000,71.350334 2.000000,2.019127   C1348.493042,2.012751 2694.986084,2.012751 4042.000000,2.012751   C4042.000000,826.725342 4042.000000,1651.450806 4041.426025,2477.376953   C4038.568115,2480.385254 4036.283936,2482.192627 4034.000000,2484.000000   C3929.274658,2484.000000 3824.549072,2484.000000 3718.325684,2483.385986   C3715.532959,2482.527344 3714.237549,2482.068115 3712.942871,2482.069336   C3675.409424,2482.106934 3637.875977,2482.189941 3599.927002,2482.058105   C3599.511475,2481.850342 3598.592041,2481.714111 3598.200684,2481.143555   C3594.445801,2478.409424 3591.096680,2476.222656 3587.716064,2474.086182   C3481.314453,2406.836670 3374.913818,2339.585449 3268.503906,2272.348877   C3172.231201,2211.517090 3075.944824,2150.707275 2979.670654,2089.877930   C2858.333984,2013.213135 2737.000732,1936.543457 2615.671631,1859.866455   C2494.661621,1783.390869 2373.662842,1706.896973 2252.651367,1630.423462   C2154.410889,1568.340332 2056.158691,1506.275635 1957.912476,1444.201660   C1839.109131,1369.139526 1720.304932,1294.078735 1601.504150,1219.012573   C1503.823364,1157.291382 1406.147705,1095.561523 1308.467896,1033.838501   C1189.104126,958.413818 1069.737671,882.993896 950.373779,807.569458   C637.227295,609.696167 324.083679,411.818481 10.904030,213.997742   C8.180814,212.277603 4.978580,211.315842 1.999999,210.000000  z"/>
<path fill="#F2E725" opacity="1.000000" stroke="none" d=" M1.999999,210.937317   C4.978580,211.315842 8.180814,212.277603 10.904030,213.997742   C324.083679,411.818481 637.227295,609.696167 950.373779,807.569458   C1069.737671,882.993896 1189.104126,958.413818 1308.467896,1033.838501   C1406.147705,1095.561523 1503.823364,1157.291382 1601.504150,1219.012573   C1720.304932,1294.078735 1839.109131,1369.139526 1957.912476,1444.201660   C2056.158691,1506.275635 2154.410889,1568.340332 2252.651367,1630.423462   C2373.662842,1706.896973 2494.661621,1783.390869 2615.671631,1859.866455   C2737.000732,1936.543457 2858.333984,2013.213135 2979.670654,2089.877930   C3075.944824,2150.707275 3172.231201,2211.517090 3268.503906,2272.348877   C3374.913818,2339.585449 3481.314453,2406.836670 3587.716064,2474.086182   C3591.096680,2476.222656 3594.445801,2478.409424 3597.235107,2481.238770   C3593.328613,2481.936279 3589.996582,2481.996338 3586.664551,2481.996338   C2675.909180,2482.000244 1765.153687,2482.000488 854.398193,2481.982910   C850.406616,2481.982910 846.415039,2481.725342 842.267212,2480.895508   C840.106140,2476.385010 838.308960,2472.439941 836.064880,2468.767822   C809.838684,2425.853760 783.934265,2382.736816 757.208496,2340.135254   C534.533508,1985.186401 311.721039,1630.323730 88.899002,1275.467163   C62.158520,1232.881348 35.113117,1190.487061 8.094234,1147.336670   C5.986291,1145.112915 3.993145,1143.556396 2.000000,1142.000000   C2.000000,831.958191 2.000000,521.916443 1.999999,210.937317  z"/>
<path fill="#1F8494" opacity="1.000000" stroke="none" d=" M8.209028,1148.004028   C35.113117,1190.487061 62.158520,1232.881348 88.899002,1275.467163   C311.721039,1630.323730 534.533508,1985.186401 757.208496,2340.135254   C783.934265,2382.736816 809.838684,2425.853760 836.064880,2468.767822   C838.308960,2472.439941 840.106140,2476.385010 841.914551,2480.965332   C841.718018,2481.727539 841.108337,2482.108887 840.399780,2481.954102   C836.460754,2482.532959 833.230347,2483.266357 830.000000,2484.000000   C554.112183,2484.000000 278.224426,2484.000000 2.000000,2484.000000   C2.000000,2043.291626 2.000000,1602.583130 2.330472,1160.291748   C4.947135,1155.367065 2.582020,1149.614502 8.209028,1148.004028  z"/>
<path fill="#FAF7B6" opacity="1.000000" stroke="none" d=" M842.070740,2481.657715   C846.415039,2481.725342 850.406616,2481.982910 854.398193,2481.982910   C1765.153687,2482.000488 2675.909180,2482.000244 3586.664551,2481.996338   C3589.996582,2481.996338 3593.328613,2481.936279 3597.626465,2481.809326   C3598.592041,2481.714111 3599.511475,2481.850342 3599.822021,2482.487793   C3600.132568,2483.125244 3600.000000,2484.000000 3600.000000,2484.000000   C2681.267822,2484.000000 1762.535767,2484.000000 842.675293,2483.528809   C841.400818,2482.741699 841.254578,2482.425293 841.108337,2482.108887   C841.108337,2482.108887 841.718018,2481.727539 842.070740,2481.657715  z"/>
<path fill="#B4D6DB" opacity="1.000000" stroke="none" d=" M3600.937256,2484.000000   C3600.000000,2484.000000 3600.132568,2483.125244 3600.237549,2482.695557   C3637.875977,2482.189941 3675.409424,2482.106934 3712.942871,2482.069336   C3714.237549,2482.068115 3715.532959,2482.527344 3717.414062,2483.385986   C3679.291504,2484.000000 3640.583008,2484.000000 3600.937256,2484.000000  z"/>
<path fill="#629A87" opacity="1.000000" stroke="none" d=" M8.094231,1147.336670   C2.582020,1149.614502 4.947135,1155.367065 2.330472,1159.354492   C2.000000,1154.599976 2.000000,1149.199951 2.000000,1142.899902   C3.993145,1143.556396 5.986291,1145.112915 8.094231,1147.336670  z"/>
<path fill="#B4D6DB" opacity="1.000000" stroke="none" d=" M4035.000000,2484.000000   C4036.283936,2482.192627 4038.568115,2480.385254 4041.426025,2478.289062   C4042.000000,2480.000000 4042.000000,2482.000000 4042.000000,2484.000000   C4040.000000,2484.000000 4038.000000,2484.000000 4035.000000,2484.000000  z"/>
<path fill="#B4D6DB" opacity="1.000000" stroke="none" d=" M840.399780,2481.954102   C841.254578,2482.425293 841.400818,2482.741699 841.773499,2483.528809   C838.571289,2484.000000 835.142578,2484.000000 830.856934,2484.000000   C833.230347,2483.266357 836.460754,2482.532959 840.399780,2481.954102  z"/>
</svg>
